<svg width="167" height="46" viewBox="0 0 167 46" fill="none" xmlns="http://www.w3.org/2000/svg">
<path d="M48.9043 13.6719H56.8584C58.4893 13.6719 59.8906 13.916 61.0625 14.4043C62.2441 14.8926 63.1523 15.6152 63.7871 16.5723C64.4219 17.5293 64.7393 18.7061 64.7393 20.1025C64.7393 21.2451 64.5439 22.2266 64.1533 23.0469C63.7725 23.8574 63.2305 24.5361 62.5273 25.083C61.834 25.6201 61.0186 26.0498 60.0811 26.3721L58.6895 27.1045H51.7754L51.7461 23.6768H56.8877C57.6592 23.6768 58.2988 23.54 58.8066 23.2666C59.3145 22.9932 59.6953 22.6123 59.9492 22.124C60.2129 21.6357 60.3447 21.0693 60.3447 20.4248C60.3447 19.7412 60.2178 19.1504 59.9639 18.6523C59.71 18.1543 59.3242 17.7734 58.8066 17.5098C58.2891 17.2461 57.6396 17.1143 56.8584 17.1143H53.2988V35H48.9043V13.6719ZM60.8281 35L55.9648 25.4932L60.6084 25.4639L65.5303 34.7949V35H60.8281ZM82.4346 31.5723V35H71.082V31.5723H82.4346ZM72.5176 13.6719V35H68.123V13.6719H72.5176ZM80.9551 22.3584V25.6982H71.082V22.3584H80.9551ZM82.4199 13.6719V17.1143H71.082V13.6719H82.4199ZM97.3613 27.9248H101.741C101.653 29.3604 101.258 30.6348 100.555 31.748C99.8613 32.8613 98.8896 33.7305 97.6396 34.3555C96.3994 34.9805 94.9053 35.293 93.1572 35.293C91.79 35.293 90.5645 35.0586 89.4805 34.5898C88.3965 34.1113 87.4688 33.4277 86.6973 32.5391C85.9355 31.6504 85.3545 30.5762 84.9541 29.3164C84.5537 28.0566 84.3535 26.6455 84.3535 25.083V23.6035C84.3535 22.041 84.5586 20.6299 84.9688 19.3701C85.3887 18.1006 85.9844 17.0215 86.7559 16.1328C87.5371 15.2441 88.4697 14.5605 89.5537 14.082C90.6377 13.6035 91.8486 13.3643 93.1865 13.3643C94.9639 13.3643 96.4629 13.6865 97.6836 14.3311C98.9141 14.9756 99.8662 15.8643 100.54 16.9971C101.224 18.1299 101.634 19.4189 101.771 20.8643H97.376C97.3271 20.0049 97.1562 19.2773 96.8633 18.6816C96.5703 18.0762 96.126 17.6221 95.5303 17.3193C94.9443 17.0068 94.1631 16.8506 93.1865 16.8506C92.4541 16.8506 91.8145 16.9873 91.2676 17.2607C90.7207 17.5342 90.2617 17.9492 89.8906 18.5059C89.5195 19.0625 89.2412 19.7656 89.0557 20.6152C88.8799 21.4551 88.792 22.4414 88.792 23.5742V25.083C88.792 26.1865 88.875 27.1582 89.041 27.998C89.207 28.8281 89.4609 29.5312 89.8027 30.1074C90.1543 30.6738 90.6035 31.1035 91.1504 31.3965C91.707 31.6797 92.376 31.8213 93.1572 31.8213C94.0752 31.8213 94.832 31.6748 95.4277 31.3818C96.0234 31.0889 96.4775 30.6543 96.79 30.0781C97.1123 29.502 97.3027 28.7842 97.3613 27.9248ZM109.3 13.6719V35H104.92V13.6719H109.3ZM121.722 27.3975H116.287V23.9697H121.722C122.562 23.9697 123.245 23.833 123.772 23.5596C124.3 23.2764 124.686 22.8857 124.93 22.3877C125.174 21.8896 125.296 21.3281 125.296 20.7031C125.296 20.0684 125.174 19.4775 124.93 18.9307C124.686 18.3838 124.3 17.9443 123.772 17.6123C123.245 17.2803 122.562 17.1143 121.722 17.1143H117.811V35H113.416V13.6719H121.722C123.392 13.6719 124.822 13.9746 126.014 14.5801C127.215 15.1758 128.133 16.001 128.768 17.0557C129.402 18.1104 129.72 19.3164 129.72 20.6738C129.72 22.0508 129.402 23.2422 128.768 24.248C128.133 25.2539 127.215 26.0303 126.014 26.5771C124.822 27.124 123.392 27.3975 121.722 27.3975ZM147.063 31.5723V35H135.711V31.5723H147.063ZM137.146 13.6719V35H132.752V13.6719H137.146ZM145.584 22.3584V25.6982H135.711V22.3584H145.584ZM147.049 13.6719V17.1143H135.711V13.6719H147.049ZM160.73 29.4189C160.73 29.0381 160.672 28.6963 160.555 28.3936C160.447 28.0811 160.242 27.7979 159.939 27.5439C159.637 27.2803 159.212 27.0215 158.665 26.7676C158.118 26.5137 157.41 26.25 156.541 25.9766C155.574 25.6641 154.656 25.3125 153.787 24.9219C152.928 24.5312 152.166 24.0771 151.502 23.5596C150.848 23.0322 150.33 22.4219 149.949 21.7285C149.578 21.0352 149.393 20.2295 149.393 19.3115C149.393 18.4229 149.588 17.6172 149.979 16.8945C150.369 16.1621 150.916 15.5371 151.619 15.0195C152.322 14.4922 153.152 14.0869 154.109 13.8037C155.076 13.5205 156.136 13.3789 157.288 13.3789C158.86 13.3789 160.232 13.6621 161.404 14.2285C162.576 14.7949 163.484 15.5713 164.129 16.5576C164.783 17.5439 165.11 18.6719 165.11 19.9414H160.745C160.745 19.3164 160.613 18.7695 160.35 18.3008C160.096 17.8223 159.705 17.4463 159.178 17.1729C158.66 16.8994 158.006 16.7627 157.215 16.7627C156.453 16.7627 155.818 16.8799 155.311 17.1143C154.803 17.3389 154.422 17.6465 154.168 18.0371C153.914 18.418 153.787 18.8477 153.787 19.3262C153.787 19.6875 153.875 20.0146 154.051 20.3076C154.236 20.6006 154.51 20.874 154.871 21.1279C155.232 21.3818 155.677 21.6211 156.204 21.8457C156.731 22.0703 157.342 22.29 158.035 22.5049C159.197 22.8564 160.218 23.252 161.097 23.6914C161.985 24.1309 162.728 24.624 163.323 25.1709C163.919 25.7178 164.368 26.3379 164.671 27.0312C164.974 27.7246 165.125 28.5107 165.125 29.3896C165.125 30.3174 164.944 31.1475 164.583 31.8799C164.222 32.6123 163.699 33.2324 163.016 33.7402C162.332 34.248 161.517 34.6338 160.569 34.8975C159.622 35.1611 158.562 35.293 157.391 35.293C156.336 35.293 155.296 35.1562 154.271 34.8828C153.245 34.5996 152.312 34.1748 151.473 33.6084C150.643 33.042 149.979 32.3193 149.48 31.4404C148.982 30.5615 148.733 29.5215 148.733 28.3203H153.143C153.143 28.9844 153.245 29.5459 153.45 30.0049C153.655 30.4639 153.943 30.835 154.314 31.1182C154.695 31.4014 155.145 31.6064 155.662 31.7334C156.189 31.8604 156.766 31.9238 157.391 31.9238C158.152 31.9238 158.777 31.8164 159.266 31.6016C159.764 31.3867 160.13 31.0889 160.364 30.708C160.608 30.3271 160.73 29.8975 160.73 29.4189Z" fill="#FF5555"/>
<path d="M25.5516 36.6667H14.5855C14.1938 36.6661 13.8184 36.5102 13.5414 36.2332C13.2645 35.9561 13.1088 35.5806 13.1083 35.1889V33.8389C13.1083 33.6915 13.1668 33.5502 13.271 33.4461C13.3752 33.3419 13.5165 33.2833 13.6639 33.2833H13.665L26.475 33.3072C26.6221 33.3075 26.7632 33.3662 26.8671 33.4703C26.971 33.5745 27.0294 33.7156 27.0294 33.8628V35.1894C27.0288 35.5811 26.8729 35.9566 26.5959 36.2335C26.3189 36.5105 25.9433 36.6662 25.5516 36.6667V36.6667ZM28.4983 16.0178C31.3089 16.0178 33.5867 14.5678 33.5867 12.7778C33.5867 10.9878 31.3089 9.53778 28.4983 9.53778C25.8883 9.53778 23.7394 10.2906 23.4466 11.9028L7.66165 11.4522C7.36696 11.4522 7.08435 11.5693 6.87597 11.7777C6.6676 11.986 6.55054 12.2687 6.55054 12.5633C6.55054 12.858 6.6676 13.1406 6.87597 13.349C7.08435 13.5574 7.36696 13.6744 7.66165 13.6744L23.4494 13.6583C23.7466 15.2678 25.8916 16.0178 28.4983 16.0178V16.0178Z" fill="#FFEDED"/>
<path d="M26.2955 34.4183H26.2827L13.6627 34.3944C12.1129 34.3923 10.6114 33.8545 9.41271 32.8722C7.50924 31.3108 5.97643 29.3461 4.92504 27.1199C3.87366 24.8938 3.32997 22.4619 3.33327 20C3.33327 19.8526 3.3918 19.7113 3.49599 19.6071C3.60017 19.5029 3.74148 19.4444 3.88882 19.4444H36.111C36.2584 19.4444 36.3997 19.5029 36.5039 19.6071C36.6081 19.7113 36.6666 19.8526 36.6666 20C36.6704 22.472 36.1225 24.9138 35.0628 27.1472C34.0031 29.3806 32.4583 31.3494 30.541 32.91C29.3415 33.8861 27.842 34.4189 26.2955 34.4183Z" fill="white"/>
<path d="M36.111 19.4444H29.7749C29.9222 19.4444 30.0635 19.5029 30.1677 19.6071C30.2719 19.7113 30.3304 19.8526 30.3304 20C30.3342 22.472 29.7863 24.9138 28.7266 27.1472C27.6669 29.3806 26.1221 31.3494 24.2049 32.91C23.0754 33.827 21.6787 34.3524 20.2249 34.4072L26.2826 34.4183H26.2954C27.842 34.4189 29.3414 33.8861 30.541 32.91C32.4582 31.3494 34.003 29.3806 35.0627 27.1472C36.1224 24.9138 36.6704 22.472 36.6665 20C36.6665 19.8526 36.608 19.7113 36.5038 19.6071C36.3996 19.5029 36.2583 19.4444 36.111 19.4444Z" fill="#FFEDED"/>
<path d="M13.6637 33.8389C12.2422 33.8383 10.8649 33.3454 9.7659 32.4439C7.92637 30.9339 6.44497 29.0345 5.42862 26.8825C4.41226 24.7306 3.8863 22.3799 3.88868 20H36.1109C36.1132 22.3895 35.583 24.7494 34.5588 26.9082C33.5345 29.067 32.042 30.9704 30.1898 32.48C29.0869 33.3789 27.7065 33.8678 26.2837 33.8633L16.5231 33.8444" stroke="#FF5555" stroke-width="1.11111" stroke-linecap="round" stroke-linejoin="round"/>
<path d="M13.6639 33.8389V35.1894C13.6639 35.3105 13.6877 35.4303 13.734 35.5422C13.7803 35.654 13.8482 35.7556 13.9338 35.8412C14.0194 35.9268 14.121 35.9946 14.2328 36.041C14.3447 36.0873 14.4645 36.1111 14.5855 36.1111H25.5522C25.7965 36.111 26.0308 36.0138 26.2036 35.841C26.3763 35.6681 26.4733 35.4338 26.4733 35.1894V33.8628L13.6639 33.8389ZM28.4983 16.0178C31.3089 16.0178 33.5867 14.5678 33.5867 12.7778C33.5867 10.9878 31.3089 9.53778 28.4983 9.53778C25.8883 9.53778 23.7394 10.2906 23.4466 11.9028L7.66165 11.4522C7.36696 11.4522 7.08435 11.5693 6.87597 11.7777C6.6676 11.986 6.55054 12.2687 6.55054 12.5633C6.55054 12.858 6.6676 13.1406 6.87597 13.349C7.08435 13.5574 7.36696 13.6744 7.66165 13.6744L23.4494 13.6583C23.7466 15.2678 25.8916 16.0178 28.4983 16.0178V16.0178Z" stroke="#FF5555" stroke-width="1.11111" stroke-linecap="round" stroke-linejoin="round"/>
</svg>
